<svg width="41" height="62" viewBox="0 0 41 62" fill="none" xmlns="http://www.w3.org/2000/svg">
<path d="M24.5 7C32.9454 7 37.8234 13.4606 39.5983 17.4857C39.8354 18.0234 39.5088 18.6228 38.9386 18.7653L28.7544 21.3114C28.3106 21.4223 27.8526 21.2135 27.6008 20.8316C24.5712 16.2363 17.9555 15.6336 17 18.5C16.5 21 17.5 21.5 29 25.5C40.5 29.5 40 36.5 39.5 43C38.8462 51.5 29.6667 53.8333 24.5 54.5V60C24.5 60.5523 24.0523 61 23.5 61H18.5C17.9477 61 17.5 60.5523 17.5 60V54.5C7.86215 54.5 2.91909 46.7708 1.31785 42.0565C1.1274 41.4958 1.50835 40.9218 2.09363 40.8317L13.139 39.1325C13.6325 39.0565 14.0982 39.3609 14.2989 39.8181C15.9411 43.5601 20.2889 43.9679 24.5 43.5C28.1 43.1 28 40.3333 26 39C24.5 38 23.1 37.7 17.5 36.5C10.5 35 2 26.5 3 18.5C3.8 12.1 13 8.16667 17.5 7V2C17.5 1.44772 17.9477 1 18.5 1H23.5C24.0523 1 24.5 1.44772 24.5 2V7Z" fill="#EBEBEB" stroke="#EBEBEB"/>
</svg>
